<svg width="200" height="200" viewBox="0 0 400 400" xmlns="http://www.w3.org/2000/svg">
  <circle cx="200" cy="120" r="70" fill="#FDE047" opacity="0.3" />

  <g stroke="#F1C40F" stroke-width="8" stroke-linecap="round">
    <line x1="200" y1="20" x2="200" y2="45" />
    <line x1="275" y1="50" x2="255" y2="70" />
    <line x1="125" y1="50" x2="145" y2="70" />
    <line x1="300" y1="120" x2="270" y2="120" />
    <line x1="100" y1="120" x2="130" y2="120" />
  </g>

  <g transform="translate(200, 130)">
    <path d="M-40 -40 C-40 -90, 40 -90, 40 -40 C40 -10, 20 0, 20 20 L-20 20 C-20 0, -40 -10, -40 -40" fill="#F1C40F" stroke="#2D3436" stroke-width="10" stroke-linejoin="round"/>
    <rect x="-18" y="20" width="36" height="10" rx="4" fill="#8E97A4" stroke="#2D3436" stroke-width="8"/>
    <rect x="-18" y="32" width="36" height="10" rx="4" fill="#8E97A4" stroke="#2D3436" stroke-width="8"/>
    <path d="M-15 -65 A 25 25 0 0 1 10 -65" fill="none" stroke="white" stroke-width="6" stroke-linecap="round" opacity="0.6"/>
  </g>

  <rect x="80" y="200" width="240" height="160" rx="20" fill="#FDCB6E" stroke="#2D3436" stroke-width="10" stroke-linejoin="round"/>

  <g stroke="#2D3436" stroke-width="8" fill="none">
    <rect x="110" y="230" width="30" height="30" rx="5" />
    <rect x="260" y="230" width="30" height="30" rx="5" />
    <rect x="110" y="300" width="30" height="30" rx="5" />
    <rect x="260" y="300" width="30" height="30" rx="5" />
  </g>
</svg>
