<svg width="200" height="200" viewBox="0 0 200 200" fill="none" xmlns="http://www.w3.org/2000/svg">
  <circle cx="155" cy="38" r="16" fill="#ECF0F1" stroke="#2C3E50" stroke-width="6"/>
  <circle cx="155" cy="38" r="8" fill="#2C3E50"/>
  <circle cx="155" cy="38" r="12" fill="none" stroke="#34495E" stroke-width="2"/>

  <path d="M155 22 Q 165 8 140 5 Q 110 3 95 28" fill="none" stroke="#F39C12" stroke-width="4" stroke-linecap="round"/>
  <line x1="95" y1="28" x2="95" y2="48" stroke="#F39C12" stroke-width="3.5" stroke-linecap="round"/>

  <g transform="translate(0, -4)">
    <rect x="25" y="52" width="150" height="123" rx="14" fill="#2C3E50" stroke="#1F2A38" stroke-width="10"/>
    <polygon points="150,52 165,70 165,52" fill="#1F2A38" stroke="#1F2A38" stroke-width="6"/>
    <rect x="38" y="67" width="124" height="93" rx="6" fill="#ECF0F1"/>
    
    <text x="45" y="110" font-family="Arial Black, sans-serif" font-size="44" font-weight="900" fill="#3498DB" letter-spacing="-3px">3D</text>
    <text x="46" y="128" font-family="Arial, sans-serif" font-size="10" font-weight="700" fill="#3498DB" letter-spacing="1.5px">FILES</text>

    <rect x="125" y="78" width="16" height="34" rx="2" fill="#2ECC71"/>
    <polygon points="113,106 133,130 153,106" fill="#2ECC71"/>
    <rect x="128" y="67" width="10" height="8" rx="1" fill="#2ECC71" opacity="0.6"/>

    <g transform="translate(0, -6)">
      <rect x="44" y="145" width="34" height="13" rx="2" fill="#1C2833"/>
      <text x="48" y="154" font-family="Arial, sans-serif" font-size="8" fill="#ECF0F1" font-weight="600">STL</text>
      
      <rect x="83" y="145" width="34" height="13" rx="2" fill="#1C2833"/>
      <text x="87" y="154" font-family="Arial, sans-serif" font-size="8" fill="#ECF0F1" font-weight="600">OBJ</text>
      
      <rect x="122" y="145" width="34" height="13" rx="2" fill="#1C2833"/>
      <text x="125" y="154" font-family="Arial, sans-serif" font-size="8" fill="#ECF0F1" font-weight="600">3MF</text>
    </g>
  </g>
</svg>
