<svg width="200" height="200" viewBox="0 0 400 400" xmlns="http://www.w3.org/2000/svg">
  <g transform="translate(60, 180) rotate(-15)">
    <rect x="25" y="-25" width="40" height="25" rx="6" fill="#E74C3C" stroke="#2D3436" stroke-width="8"/>
    <rect x="85" y="-25" width="40" height="25" rx="6" fill="#E74C3C" stroke="#2D3436" stroke-width="8"/>
    <rect x="0" y="0" width="150" height="90" rx="10" fill="#E74C3C" stroke="#2D3436" stroke-width="8"/>
  </g>

  <g transform="translate(50, 260)">
    <rect x="30" y="-25" width="40" height="25" rx="6" fill="#8E97A4" stroke="#2D3436" stroke-width="8"/>
    <rect x="110" y="-25" width="40" height="25" rx="6" fill="#8E97A4" stroke="#2D3436" stroke-width="8"/>
    <rect x="0" y="0" width="180" height="100" rx="10" fill="#8E97A4" stroke="#2D3436" stroke-width="8"/>
  </g>

  <g transform="translate(200, 160)">
    <rect x="25" y="-25" width="40" height="25" rx="6" fill="#FDCB6E" stroke="#2D3436" stroke-width="8"/>
    <rect x="85" y="-25" width="40" height="25" rx="6" fill="#FDCB6E" stroke="#2D3436" stroke-width="8"/>
    <rect x="0" y="0" width="150" height="90" rx="10" fill="#FDCB6E" stroke="#2D3436" stroke-width="8"/>
  </g>

  <g transform="translate(240, 270)">
    <rect x="25" y="-25" width="40" height="25" rx="6" fill="#3498DB" stroke="#2D3436" stroke-width="8"/>
    <rect x="0" y="0" width="90" height="90" rx="10" fill="#3498DB" stroke="#2D3436" stroke-width="8"/>
  </g>
</svg>
